<svg>
<symbol id="arrow-up" viewBox="0 0 255 255" xmlns="http://www.w3.org/2000/svg">
<g id="arrow-drop-up">
		<polygon points="0,191.25 127.5,63.75 255,191.25 		"/>
	</g>
</symbol>

<symbol id="arrow-down" viewBox="0 0 255 255" xmlns="http://www.w3.org/2000/svg">
<g>
		<polygon points="0,63.75 127.5,191.25 255,63.75 		"/>
	</g>
</symbol>

<symbol id="arrow-down-2" viewBox="0 0 284.929 284.929" xmlns="http://www.w3.org/2000/svg">
 <g>
       <path d="M282.082,76.511l-14.274-14.273c-1.902-1.906-4.093-2.856-6.57-2.856c-2.471,0-4.661,0.95-6.563,2.856L142.466,174.441
		L30.262,62.241c-1.903-1.906-4.093-2.856-6.567-2.856c-2.475,0-4.665,0.95-6.567,2.856L2.856,76.515C0.95,78.417,0,80.607,0,83.082
		c0,2.473,0.953,4.663,2.856,6.565l133.043,133.046c1.902,1.903,4.093,2.854,6.567,2.854s4.661-0.951,6.562-2.854L282.082,89.647
		c1.902-1.903,2.847-4.093,2.847-6.565C284.929,80.607,283.984,78.417,282.082,76.511z"/>
    </g>
</symbol>
</svg>